<svg width="30" height="30" viewBox="0 0 30 30" fill="none" xmlns="http://www.w3.org/2000/svg">
<path d="M20.4737 3.25H17.2132C14.0867 3.25 11.5548 5.78784 11.5548 8.9165V10.8451C11.5548 10.9832 11.4428 11.0951 11.3048 11.0951H9.443C8.77954 11.0951 8.25 11.6273 8.25 12.2888V15.883C8.25 16.5446 8.77954 17.0767 9.443 17.0767H11.3048C11.4428 17.0767 11.5548 17.1887 11.5548 17.3267V25.5563C11.5548 26.2178 12.0843 26.75 12.7478 26.75H16.5398C17.2033 26.75 17.7328 26.2178 17.7328 25.5563V17.3267C17.7328 17.1887 17.8448 17.0767 17.9828 17.0767H20.3053C20.9688 17.0767 21.4983 16.5446 21.4983 15.883V12.2888C21.4983 11.6273 20.9688 11.0951 20.3053 11.0951H17.9828C17.8448 11.0951 17.7328 10.9832 17.7328 10.8451V9.17386C17.7328 9.05444 17.8235 8.96541 17.9397 8.96541H20.4737C21.1371 8.96541 21.6667 8.43322 21.6667 7.77168V4.44373C21.6667 3.78219 21.1371 3.25 20.4737 3.25Z" stroke="url(#paint0_linear_360_296)" stroke-width="1.5" stroke-miterlimit="10"/>
<defs>
<linearGradient id="paint0_linear_360_296" x1="14.9583" y1="4" x2="14.9583" y2="26" gradientUnits="userSpaceOnUse">
<stop offset="1"/>
</linearGradient>
</defs>
</svg>
