<svg width="30" height="30" viewBox="0 0 30 30" fill="none" xmlns="http://www.w3.org/2000/svg">
<path d="M25 2.25H5C3.75736 2.25 2.75 3.25736 2.75 4.5V6.5C2.75 7.74264 3.75736 8.75 5 8.75H25C26.2426 8.75 27.25 7.74264 27.25 6.5V4.5C27.25 3.25736 26.2426 2.25 25 2.25Z" stroke="url(#paint0_linear_360_315)" stroke-width="1.5"/>
<path d="M11 12.25H5C3.75736 12.25 2.75 13.2574 2.75 14.5V18.5C2.75 19.7426 3.75736 20.75 5 20.75H11C12.2426 20.75 13.25 19.7426 13.25 18.5V14.5C13.25 13.2574 12.2426 12.25 11 12.25Z" stroke="url(#paint1_linear_360_315)" stroke-width="1.5"/>
<path d="M25 12.25H19C17.7574 12.25 16.75 13.2574 16.75 14.5V18.5C16.75 19.7426 17.7574 20.75 19 20.75H25C26.2426 20.75 27.25 19.7426 27.25 18.5V14.5C27.25 13.2574 26.2426 12.25 25 12.25Z" stroke="url(#paint2_linear_360_315)" stroke-width="1.5"/>
<path d="M3.5 24H11.1981" stroke="url(#paint3_linear_360_315)" stroke-width="1.5" stroke-linecap="round" stroke-linejoin="round"/>
<path d="M3.5 27H8.5" stroke="url(#paint4_linear_360_315)" stroke-width="1.5" stroke-linecap="round" stroke-linejoin="round"/>
<path d="M17.5 27H22" stroke="url(#paint5_linear_360_315)" stroke-width="1.5" stroke-linecap="round" stroke-linejoin="round"/>
<path d="M17.5 24H25.1981" stroke="url(#paint6_linear_360_315)" stroke-width="1.5" stroke-linecap="round" stroke-linejoin="round"/>
<path d="M7 5.75C7 6.16421 6.66421 6.5 6.25 6.5C5.83579 6.5 5.5 6.16421 5.5 5.75C5.5 5.33579 5.83579 5 6.25 5C6.66421 5 7 5.33579 7 5.75Z" fill="url(#paint7_linear_360_315)"/>
<mask id="mask0_360_315" style="mask-type:luminance" maskUnits="userSpaceOnUse" x="5" y="5" width="2" height="2">
<path d="M7 5.75C7 6.16421 6.66421 6.5 6.25 6.5C5.83579 6.5 5.5 6.16421 5.5 5.75C5.5 5.33579 5.83579 5 6.25 5C6.66421 5 7 5.33579 7 5.75Z" fill="white"/>
</mask>
<g mask="url(#mask0_360_315)">
<path d="M5.5 5.75C5.5 5.33579 5.83579 5 6.25 5V8C7.49264 8 8.5 6.99264 8.5 5.75H5.5ZM6.25 5C6.66421 5 7 5.33579 7 5.75H4C4 6.99264 5.00736 8 6.25 8V5ZM7 5.75C7 6.16421 6.66421 6.5 6.25 6.5V3.5C5.00736 3.5 4 4.50736 4 5.75H7ZM6.25 6.5C5.83579 6.5 5.5 6.16421 5.5 5.75H8.5C8.5 4.50736 7.49264 3.5 6.25 3.5V6.5Z" fill="url(#paint8_linear_360_315)"/>
</g>
<path d="M9.25 5.75C9.25 6.16421 8.91421 6.5 8.5 6.5C8.08579 6.5 7.75 6.16421 7.75 5.75C7.75 5.33579 8.08579 5 8.5 5C8.91421 5 9.25 5.33579 9.25 5.75Z" fill="url(#paint9_linear_360_315)"/>
<path d="M11.75 5.75C11.75 6.16421 11.4142 6.5 11 6.5C10.5858 6.5 10.25 6.16421 10.25 5.75C10.25 5.33579 10.5858 5 11 5C11.4142 5 11.75 5.33579 11.75 5.75Z" fill="url(#paint10_linear_360_315)"/>
<mask id="mask1_360_315" style="mask-type:luminance" maskUnits="userSpaceOnUse" x="7" y="5" width="5" height="2">
<path d="M9.25 5.75C9.25 6.16421 8.91421 6.5 8.5 6.5C8.08579 6.5 7.75 6.16421 7.75 5.75C7.75 5.33579 8.08579 5 8.5 5C8.91421 5 9.25 5.33579 9.25 5.75Z" fill="white"/>
<path d="M11.75 5.75C11.75 6.16421 11.4142 6.5 11 6.5C10.5858 6.5 10.25 6.16421 10.25 5.75C10.25 5.33579 10.5858 5 11 5C11.4142 5 11.75 5.33579 11.75 5.75Z" fill="white"/>
</mask>
<g mask="url(#mask1_360_315)">
<path d="M7.75 5.75C7.75 5.33579 8.08579 5 8.5 5V8C9.74264 8 10.75 6.99264 10.75 5.75H7.75ZM8.5 5C8.91421 5 9.25 5.33579 9.25 5.75H6.25C6.25 6.99264 7.25736 8 8.5 8V5ZM9.25 5.75C9.25 6.16421 8.91421 6.5 8.5 6.5V3.5C7.25736 3.5 6.25 4.50736 6.25 5.75H9.25ZM8.5 6.5C8.08579 6.5 7.75 6.16421 7.75 5.75H10.75C10.75 4.50736 9.74264 3.5 8.5 3.5V6.5ZM10.25 5.75C10.25 5.33579 10.5858 5 11 5V8C12.2426 8 13.25 6.99264 13.25 5.75H10.25ZM11 5C11.4142 5 11.75 5.33579 11.75 5.75H8.75C8.75 6.99264 9.75736 8 11 8V5ZM11.75 5.75C11.75 6.16421 11.4142 6.5 11 6.5V3.5C9.75736 3.5 8.75 4.50736 8.75 5.75H11.75ZM11 6.5C10.5858 6.5 10.25 6.16421 10.25 5.75H13.25C13.25 4.50736 12.2426 3.5 11 3.5V6.5Z" fill="url(#paint11_linear_360_315)"/>
</g>
<defs>
<linearGradient id="paint0_linear_360_315" x1="15" y1="3" x2="15" y2="8" gradientUnits="userSpaceOnUse">
<stop offset="1"/>
</linearGradient>
<linearGradient id="paint1_linear_360_315" x1="8" y1="13" x2="8" y2="20" gradientUnits="userSpaceOnUse">
<stop offset="1"/>
</linearGradient>
<linearGradient id="paint2_linear_360_315" x1="22" y1="13" x2="22" y2="20" gradientUnits="userSpaceOnUse">
<stop offset="1"/>
</linearGradient>
<linearGradient id="paint3_linear_360_315" x1="nan" y1="nan" x2="nan" y2="nan" gradientUnits="userSpaceOnUse">
<stop offset="1"/>
</linearGradient>
<linearGradient id="paint4_linear_360_315" x1="nan" y1="nan" x2="nan" y2="nan" gradientUnits="userSpaceOnUse">
<stop offset="1"/>
</linearGradient>
<linearGradient id="paint5_linear_360_315" x1="nan" y1="nan" x2="nan" y2="nan" gradientUnits="userSpaceOnUse">
<stop offset="1"/>
</linearGradient>
<linearGradient id="paint6_linear_360_315" x1="nan" y1="nan" x2="nan" y2="nan" gradientUnits="userSpaceOnUse">
<stop offset="1"/>
</linearGradient>
<linearGradient id="paint7_linear_360_315" x1="6.25" y1="5" x2="6.25" y2="6.5" gradientUnits="userSpaceOnUse">
<stop offset="1"/>
</linearGradient>
<linearGradient id="paint8_linear_360_315" x1="6.25" y1="5" x2="6.25" y2="6.5" gradientUnits="userSpaceOnUse">
<stop offset="1"/>
</linearGradient>
<linearGradient id="paint9_linear_360_315" x1="9.75" y1="5" x2="9.75" y2="6.50005" gradientUnits="userSpaceOnUse">
<stop offset="1"/>
</linearGradient>
<linearGradient id="paint10_linear_360_315" x1="9.75" y1="5" x2="9.75" y2="6.50005" gradientUnits="userSpaceOnUse">
<stop offset="1"/>
</linearGradient>
<linearGradient id="paint11_linear_360_315" x1="9.75" y1="5" x2="9.75" y2="6.50005" gradientUnits="userSpaceOnUse">
<stop offset="1"/>
</linearGradient>
</defs>
</svg>
