<svg width="30" height="30" viewBox="0 0 30 30" fill="none" xmlns="http://www.w3.org/2000/svg">
<path d="M19.3468 9.89677C16.7418 7.65386 12.6828 8.03361 10.3807 10.502C7.82418 13.2433 8.12708 17.8241 11.0835 20.1738C12.7434 21.4911 15.0091 21.9895 17.081 21.4199C18.4138 21.052 19.7345 20.2569 20.4978 19.1176C20.8371 18.6073 21.0673 18.0496 21.2248 17.4562H15.2393C15.2515 16.1864 15.2151 14.5013 15.2151 13.2315H25.8411C26.2167 15.7711 25.9501 18.2276 24.787 20.5536C22.9453 24.2206 18.8379 26.1668 14.7668 25.9888C11.5923 25.8582 8.95099 24.5884 6.81852 22.2862C4.33468 19.6161 3.42596 15.6999 4.35892 12.2228C5.41303 8.30656 8.78136 5.138 12.8161 4.27169C15.2999 3.73766 17.7232 3.98687 20.0374 5.05493C20.9703 5.48215 21.8064 6.05178 22.5818 6.72821L19.3468 9.89677Z" stroke="url(#paint0_linear_360_351)" stroke-width="1.5" stroke-miterlimit="10"/>
<defs>
<linearGradient id="paint0_linear_360_351" x1="15" y1="4" x2="15" y2="26" gradientUnits="userSpaceOnUse">
<stop offset="1"/>
</linearGradient>
</defs>
</svg>
