<svg width="30" height="30" viewBox="0 0 30 30" fill="none" xmlns="http://www.w3.org/2000/svg">
<path d="M23.5 15C24.9045 15 25.6067 15 26.1111 14.6629C26.3295 14.517 26.517 14.3295 26.6629 14.1111C27 13.6067 27 12.9045 27 11.5V11C27 9.11438 27 8.17157 26.4142 7.58579C25.8284 7 24.8856 7 23 7H7C5.11438 7 4.17157 7 3.58579 7.58579C3 8.17157 3 9.11438 3 11C3 12.8856 3 13.8284 3.58579 14.4142C4.17157 15 5.11438 15 7 15H12.0893" stroke="url(#paint0_linear_360_369)" stroke-width="1.5" stroke-linecap="round"/>
<path d="M18.4729 15.7664C18.509 15.6025 18.5392 15.466 18.5676 15.348C18.6587 15.4282 18.7619 15.5225 18.8857 15.6358L24.0486 20.3573C24.2707 20.5603 24.4553 20.7296 24.6072 20.8735C24.3989 20.8531 24.1501 20.8247 23.8512 20.7901L21.0603 20.4672C21.0465 20.4656 21.0316 20.4637 21.0156 20.4617C20.8565 20.442 20.5904 20.409 20.3306 20.489C20.0709 20.5689 19.8694 20.7459 19.7489 20.8517C19.7368 20.8623 19.7255 20.8723 19.7151 20.8813L17.3557 22.9196C17.1336 23.1115 16.9488 23.2707 16.7923 23.4011C16.8327 23.2015 16.8849 22.9632 16.9481 22.6766L18.4729 15.7664Z" fill="url(#paint1_linear_360_369)"/>
<path d="M18.4729 15.7664C18.509 15.6025 18.5392 15.466 18.5676 15.348C18.6587 15.4282 18.7619 15.5225 18.8857 15.6358L24.0486 20.3573C24.2707 20.5603 24.4553 20.7296 24.6072 20.8735C24.3989 20.8531 24.1501 20.8247 23.8512 20.7901L21.0603 20.4672C21.0465 20.4656 21.0316 20.4637 21.0156 20.4617C20.8565 20.442 20.5904 20.409 20.3306 20.489C20.0709 20.5689 19.8694 20.7459 19.7489 20.8517C19.7368 20.8623 19.7255 20.8723 19.7151 20.8813L17.3557 22.9196C17.1336 23.1115 16.9488 23.2707 16.7923 23.4011C16.8327 23.2015 16.8849 22.9632 16.9481 22.6766L18.4729 15.7664ZM18.4729 15.7664L17.7405 15.6048" stroke="url(#paint2_linear_360_369)" stroke-width="1.5"/>
<path d="M16.8418 9.604L17.9355 12.4714" stroke="url(#paint3_linear_360_369)" stroke-width="1.5" stroke-linecap="round"/>
<path d="M21.7512 10.6754L20.4189 12.7588M13.0201 12.1818L15.8278 14.0167" stroke="url(#paint4_linear_360_369)" stroke-width="1.5" stroke-linecap="round"/>
<defs>
<linearGradient id="paint0_linear_360_369" x1="15" y1="7" x2="15" y2="15" gradientUnits="userSpaceOnUse">
<stop offset="1"/>
</linearGradient>
<linearGradient id="paint1_linear_360_369" x1="18.1137" y1="13.9134" x2="21.2017" y2="23.6734" gradientUnits="userSpaceOnUse">
<stop offset="1"/>
</linearGradient>
<linearGradient id="paint2_linear_360_369" x1="18.1137" y1="13.9134" x2="21.2017" y2="23.6734" gradientUnits="userSpaceOnUse">
<stop offset="1"/>
</linearGradient>
<linearGradient id="paint3_linear_360_369" x1="17.3886" y1="11.0377" x2="16.4543" y2="11.3941" gradientUnits="userSpaceOnUse">
<stop offset="1"/>
</linearGradient>
<linearGradient id="paint4_linear_360_369" x1="21.4354" y1="10.0581" x2="13.9042" y2="13.9103" gradientUnits="userSpaceOnUse">
<stop offset="1"/>
</linearGradient>
</defs>
</svg>
