<svg width="30" height="30" viewBox="0 0 30 30" fill="none" xmlns="http://www.w3.org/2000/svg">
<path d="M18.5 4.75H11.5C10.5335 4.75 9.75 5.5335 9.75 6.5V23.5C9.75 24.4665 10.5335 25.25 11.5 25.25H18.5C19.4665 25.25 20.25 24.4665 20.25 23.5V6.5C20.25 5.5335 19.4665 4.75 18.5 4.75Z" stroke="url(#paint0_linear_360_393)" stroke-width="1.5"/>
<path d="M10 20.0473C13.4794 16.8763 15.9835 21.6002 18 25" stroke="url(#paint1_linear_360_393)" stroke-width="1.5" stroke-miterlimit="7.3333"/>
<path d="M16 22C16 22 17.5001 19.5 20.5 21" stroke="url(#paint2_linear_360_393)" stroke-width="1.5" stroke-miterlimit="7.3333"/>
<path d="M26 4.75H25C24.0335 4.75 23.25 5.5335 23.25 6.5V23.5C23.25 24.4665 24.0335 25.25 25 25.25H26C26.9665 25.25 27.75 24.4665 27.75 23.5V6.5C27.75 5.5335 26.9665 4.75 26 4.75Z" stroke="url(#paint3_linear_360_393)" stroke-width="1.5"/>
<path d="M25.1001 16L25.8173 15.2828C25.9506 15.1495 26.0173 15.0828 26.0173 15C26.0173 14.9172 25.9506 14.8505 25.8173 14.7172L25.1001 14" stroke="url(#paint4_linear_360_393)" stroke-linecap="round"/>
<path d="M5 4.75H4C3.0335 4.75 2.25 5.5335 2.25 6.5V23.5C2.25 24.4665 3.0335 25.25 4 25.25H5C5.9665 25.25 6.75 24.4665 6.75 23.5V6.5C6.75 5.5335 5.9665 4.75 5 4.75Z" stroke="url(#paint5_linear_360_393)" stroke-width="1.5"/>
<path d="M4.80003 14L4.08287 14.7172C3.94954 14.8505 3.88287 14.9172 3.88287 15C3.88287 15.0828 3.94954 15.1495 4.08287 15.2828L4.80003 16" stroke="url(#paint6_linear_360_393)" stroke-linecap="round"/>
<defs>
<linearGradient id="paint0_linear_360_393" x1="15" y1="4" x2="15" y2="26" gradientUnits="userSpaceOnUse">
<stop offset="1"/>
</linearGradient>
<linearGradient id="paint1_linear_360_393" x1="14" y1="19" x2="14" y2="25" gradientUnits="userSpaceOnUse">
<stop offset="1"/>
</linearGradient>
<linearGradient id="paint2_linear_360_393" x1="18.25" y1="20.5208" x2="18.25" y2="22" gradientUnits="userSpaceOnUse">
<stop offset="1"/>
</linearGradient>
<linearGradient id="paint3_linear_360_393" x1="25.5" y1="4" x2="25.5" y2="26" gradientUnits="userSpaceOnUse">
<stop offset="1"/>
</linearGradient>
<linearGradient id="paint4_linear_360_393" x1="25.6001" y1="16" x2="25.6001" y2="14" gradientUnits="userSpaceOnUse">
<stop offset="1"/>
</linearGradient>
<linearGradient id="paint5_linear_360_393" x1="4.5" y1="4" x2="4.5" y2="26" gradientUnits="userSpaceOnUse">
<stop offset="1"/>
</linearGradient>
<linearGradient id="paint6_linear_360_393" x1="4.30003" y1="14" x2="4.30003" y2="16" gradientUnits="userSpaceOnUse">
<stop offset="1"/>
</linearGradient>
</defs>
</svg>
