<svg width="30" height="30" viewBox="0 0 30 30" fill="none" xmlns="http://www.w3.org/2000/svg">
<path d="M24.0944 2.75H5.45288C3.9341 2.75 2.70288 3.98122 2.70288 5.5V15.9906C2.70288 17.5094 3.9341 18.7406 5.45288 18.7406H24.0944C25.6132 18.7406 26.8444 17.5094 26.8444 15.9906V5.5C26.8444 3.98122 25.6132 2.75 24.0944 2.75Z" stroke="url(#paint0_linear_360_447)" stroke-width="1.5"/>
<path d="M8.3867 21.1133H4.8584C4.30611 21.1133 3.8584 21.561 3.8584 22.1133V25.6416C3.8584 26.1939 4.30611 26.6416 4.8584 26.6416H8.3867C8.93898 26.6416 9.3867 26.1939 9.3867 25.6416V22.1133C9.3867 21.561 8.93898 21.1133 8.3867 21.1133Z" stroke="url(#paint1_linear_360_447)"/>
<path d="M12.7553 21.4062C12.5737 21.5878 12.5109 21.8064 12.4852 21.998C12.4623 22.168 12.4624 22.374 12.4624 22.5861C12.4624 22.5951 12.4624 22.6042 12.4624 22.6133V25.1416C12.4624 25.1507 12.4624 25.1597 12.4624 25.1688C12.4624 25.3808 12.4623 25.5869 12.4852 25.7568C12.5109 25.9484 12.5737 26.1671 12.7553 26.3487C12.9369 26.5303 13.1555 26.5931 13.3471 26.6188C13.5171 26.6417 13.7232 26.6416 13.9352 26.6416C13.9443 26.6416 13.9533 26.6416 13.9624 26.6416H16.4907C16.4998 26.6416 16.5089 26.6416 16.5179 26.6416C16.7299 26.6416 16.936 26.6417 17.106 26.6188C17.2976 26.5931 17.5162 26.5303 17.6978 26.3487C17.8794 26.1671 17.9422 25.9484 17.9679 25.7568C17.9908 25.5869 17.9907 25.3808 17.9907 25.1688C17.9907 25.1597 17.9907 25.1507 17.9907 25.1416V22.6133C17.9907 22.6042 17.9907 22.5951 17.9907 22.5861C17.9907 22.374 17.9908 22.168 17.9679 21.998C17.9422 21.8064 17.8794 21.5878 17.6978 21.4062C17.5162 21.2246 17.2976 21.1618 17.106 21.136C16.936 21.1132 16.7299 21.1132 16.5179 21.1133C16.5089 21.1133 16.4998 21.1133 16.4907 21.1133H13.9624C13.9533 21.1133 13.9443 21.1133 13.9352 21.1133C13.7232 21.1132 13.5171 21.1132 13.3471 21.136C13.1555 21.1618 12.9369 21.2246 12.7553 21.4062Z" stroke="url(#paint2_linear_360_447)"/>
<path d="M25.5942 21.1133H22.0659C21.5136 21.1133 21.0659 21.561 21.0659 22.1133V25.6416C21.0659 26.1939 21.5136 26.6416 22.0659 26.6416H25.5942C26.1465 26.6416 26.5942 26.1939 26.5942 25.6416V22.1133C26.5942 21.561 26.1465 21.1133 25.5942 21.1133Z" stroke="url(#paint3_linear_360_447)"/>
<path d="M3 11.1981C10.8779 6.73555 17.0004 13.6588 21.566 18.4434" stroke="url(#paint4_linear_360_447)" stroke-width="1.5" stroke-miterlimit="7.3333" stroke-linecap="round"/>
<path d="M17.9434 15.2737C17.9434 15.2737 22.0083 10.9107 27 10.7454" stroke="url(#paint5_linear_360_447)" stroke-width="1.5" stroke-miterlimit="7.3333"/>
<path d="M3.90576 23.4244C4.81142 23.2735 7.8001 23.6961 8.88689 26.5942" stroke="url(#paint6_linear_360_447)"/>
<path d="M12.5093 23.4244C13.4149 23.2735 16.4036 23.6961 17.4904 26.5942" stroke="url(#paint7_linear_360_447)"/>
<path d="M20.6604 23.4244C21.5661 23.2735 24.5547 23.6961 25.6415 26.5942" stroke="url(#paint8_linear_360_447)"/>
<defs>
<linearGradient id="paint0_linear_360_447" x1="14.7736" y1="3.5" x2="14.7736" y2="17.9906" gradientUnits="userSpaceOnUse">
<stop offset="1"/>
</linearGradient>
<linearGradient id="paint1_linear_360_447" x1="6.62255" y1="21.6133" x2="6.62255" y2="26.1416" gradientUnits="userSpaceOnUse">
<stop offset="1"/>
</linearGradient>
<linearGradient id="paint2_linear_360_447" x1="15.2266" y1="21.6133" x2="15.2266" y2="26.1416" gradientUnits="userSpaceOnUse">
<stop offset="1"/>
</linearGradient>
<linearGradient id="paint3_linear_360_447" x1="23.8301" y1="21.6133" x2="23.8301" y2="26.1416" gradientUnits="userSpaceOnUse">
<stop offset="1"/>
</linearGradient>
<linearGradient id="paint4_linear_360_447" x1="12.283" y1="9.76098" x2="12.283" y2="18.4434" gradientUnits="userSpaceOnUse">
<stop offset="1"/>
</linearGradient>
<linearGradient id="paint5_linear_360_447" x1="22.4717" y1="10.7454" x2="22.4717" y2="15.2737" gradientUnits="userSpaceOnUse">
<stop offset="1"/>
</linearGradient>
<linearGradient id="paint6_linear_360_447" x1="6.39633" y1="23.3979" x2="6.39633" y2="26.5942" gradientUnits="userSpaceOnUse">
<stop offset="1"/>
</linearGradient>
<linearGradient id="paint7_linear_360_447" x1="14.9998" y1="23.3979" x2="14.9998" y2="26.5942" gradientUnits="userSpaceOnUse">
<stop offset="1"/>
</linearGradient>
<linearGradient id="paint8_linear_360_447" x1="23.151" y1="23.3979" x2="23.151" y2="26.5942" gradientUnits="userSpaceOnUse">
<stop offset="1"/>
</linearGradient>
</defs>
</svg>
