<svg width="30" height="30" viewBox="0 0 30 30" fill="none" xmlns="http://www.w3.org/2000/svg">
<path d="M4.01256 16.2626C3.70354 16.5716 3.59109 16.9473 3.5433 17.3028C3.4999 17.6256 3.49995 18.0224 3.5 18.4553C3.5 18.4701 3.5 18.485 3.5 18.5V23.5C3.5 23.515 3.5 23.5299 3.5 23.5447C3.49995 23.9776 3.4999 24.3744 3.5433 24.6972C3.59109 25.0527 3.70354 25.4284 4.01256 25.7374C4.32159 26.0465 4.69731 26.1589 5.05279 26.2067C5.3756 26.2501 5.77244 26.2501 6.20526 26.25C6.22013 26.25 6.23504 26.25 6.25 26.25H11.25C11.265 26.25 11.2799 26.25 11.2947 26.25C11.7276 26.2501 12.1244 26.2501 12.4472 26.2067C12.8027 26.1589 13.1784 26.0465 13.4874 25.7374C13.7965 25.4284 13.9089 25.0527 13.9567 24.6972C14.0001 24.3744 14.0001 23.9776 14 23.5447C14 23.5299 14 23.515 14 23.5V18.5C14 18.485 14 18.4701 14 18.4553C14.0001 18.0224 14.0001 17.6256 13.9567 17.3028C13.9089 16.9473 13.7965 16.5716 13.4874 16.2626C13.1784 15.9535 12.8027 15.8411 12.4472 15.7933C12.1244 15.7499 11.7276 15.7499 11.2947 15.75C11.2799 15.75 11.265 15.75 11.25 15.75H6.25C6.23504 15.75 6.22013 15.75 6.20525 15.75C5.77244 15.7499 5.3756 15.7499 5.05279 15.7933C4.69731 15.8411 4.32159 15.9535 4.01256 16.2626Z" stroke="url(#paint0_linear_360_401)" stroke-width="1.5"/>
<path d="M4.01256 3.26256C3.70354 3.57159 3.59109 3.94731 3.5433 4.30279C3.4999 4.6256 3.49995 5.02244 3.5 5.45525C3.5 5.47013 3.5 5.48504 3.5 5.5V10.5C3.5 10.515 3.5 10.5299 3.5 10.5447C3.49995 10.9776 3.4999 11.3744 3.5433 11.6972C3.59109 12.0527 3.70354 12.4284 4.01256 12.7374C4.32159 13.0465 4.69731 13.1589 5.05279 13.2067C5.3756 13.2501 5.77244 13.2501 6.20526 13.25C6.22013 13.25 6.23504 13.25 6.25 13.25H11.25C11.265 13.25 11.2799 13.25 11.2947 13.25C11.7276 13.2501 12.1244 13.2501 12.4472 13.2067C12.8027 13.1589 13.1784 13.0465 13.4874 12.7374C13.7965 12.4284 13.9089 12.0527 13.9567 11.6972C14.0001 11.3744 14.0001 10.9776 14 10.5447C14 10.5299 14 10.515 14 10.5V5.5C14 5.48504 14 5.47013 14 5.45526C14.0001 5.02244 14.0001 4.6256 13.9567 4.30279C13.9089 3.94731 13.7965 3.57159 13.4874 3.26256C13.1784 2.95354 12.8027 2.84109 12.4472 2.7933C12.1244 2.7499 11.7276 2.74995 11.2947 2.75C11.2799 2.75 11.265 2.75 11.25 2.75H6.25C6.23504 2.75 6.22013 2.75 6.20525 2.75C5.77244 2.74995 5.3756 2.7499 5.05279 2.7933C4.69731 2.84109 4.32159 2.95354 4.01256 3.26256Z" stroke="url(#paint1_linear_360_401)" stroke-width="1.5"/>
<path d="M17.0126 16.2626C16.7035 16.5716 16.5911 16.9473 16.5433 17.3028C16.4999 17.6256 16.4999 18.0224 16.5 18.4553C16.5 18.4701 16.5 18.485 16.5 18.5V23.5C16.5 23.515 16.5 23.5299 16.5 23.5447C16.4999 23.9776 16.4999 24.3744 16.5433 24.6972C16.5911 25.0527 16.7035 25.4284 17.0126 25.7374C17.3216 26.0465 17.6973 26.1589 18.0528 26.2067C18.3756 26.2501 18.7724 26.2501 19.2053 26.25C19.2201 26.25 19.235 26.25 19.25 26.25H24.25C24.265 26.25 24.2799 26.25 24.2947 26.25C24.7276 26.2501 25.1244 26.2501 25.4472 26.2067C25.8027 26.1589 26.1784 26.0465 26.4874 25.7374C26.7965 25.4284 26.9089 25.0527 26.9567 24.6972C27.0001 24.3744 27.0001 23.9776 27 23.5447C27 23.5299 27 23.515 27 23.5V18.5C27 18.485 27 18.4701 27 18.4553C27.0001 18.0224 27.0001 17.6256 26.9567 17.3028C26.9089 16.9473 26.7965 16.5716 26.4874 16.2626C26.1784 15.9535 25.8027 15.8411 25.4472 15.7933C25.1244 15.7499 24.7276 15.7499 24.2947 15.75C24.2799 15.75 24.265 15.75 24.25 15.75H19.25C19.235 15.75 19.2201 15.75 19.2053 15.75C18.7724 15.7499 18.3756 15.7499 18.0528 15.7933C17.6973 15.8411 17.3216 15.9535 17.0126 16.2626Z" stroke="url(#paint2_linear_360_401)" stroke-width="1.5"/>
<path d="M17.0126 3.26256C16.7035 3.57159 16.5911 3.94731 16.5433 4.30279C16.4999 4.6256 16.4999 5.02244 16.5 5.45525C16.5 5.47013 16.5 5.48504 16.5 5.5V10.5C16.5 10.515 16.5 10.5299 16.5 10.5447C16.4999 10.9776 16.4999 11.3744 16.5433 11.6972C16.5911 12.0527 16.7035 12.4284 17.0126 12.7374C17.3216 13.0465 17.6973 13.1589 18.0528 13.2067C18.3756 13.2501 18.7724 13.2501 19.2053 13.25C19.2201 13.25 19.235 13.25 19.25 13.25H24.25C24.265 13.25 24.2799 13.25 24.2947 13.25C24.7276 13.2501 25.1244 13.2501 25.4472 13.2067C25.8027 13.1589 26.1784 13.0465 26.4874 12.7374C26.7965 12.4284 26.9089 12.0527 26.9567 11.6972C27.0001 11.3744 27.0001 10.9776 27 10.5447C27 10.5299 27 10.515 27 10.5V5.5C27 5.48504 27 5.47013 27 5.45526C27.0001 5.02244 27.0001 4.6256 26.9567 4.30279C26.9089 3.94731 26.7965 3.57159 26.4874 3.26256C26.1784 2.95354 25.8027 2.84109 25.4472 2.7933C25.1244 2.7499 24.7276 2.74995 24.2947 2.75C24.2799 2.75 24.265 2.75 24.25 2.75H19.25C19.235 2.75 19.2201 2.75 19.2053 2.75C18.7724 2.74995 18.3756 2.7499 18.0528 2.7933C17.6973 2.84109 17.3216 2.95354 17.0126 3.26256Z" stroke="url(#paint3_linear_360_401)" stroke-width="1.5"/>
<path d="M3.25 22.0002C6.25 20.0002 10.25 24.0002 10.75 26.5002" stroke="url(#paint4_linear_360_401)" stroke-width="1.5" stroke-miterlimit="7.3333"/>
<path d="M3.25 9.04165C6.25 7.04166 10.25 11.0417 10.75 13.5417" stroke="url(#paint5_linear_360_401)" stroke-width="1.5" stroke-miterlimit="7.3333"/>
<path d="M16.25 22.0002C19.25 20.0002 23.25 24.0002 23.75 26.5002" stroke="url(#paint6_linear_360_401)" stroke-width="1.5" stroke-miterlimit="7.3333"/>
<path d="M16.25 9.04165C19.25 7.04166 23.25 11.0417 23.75 13.5417" stroke="url(#paint7_linear_360_401)" stroke-width="1.5" stroke-miterlimit="7.3333"/>
<path d="M9.75 24C9.75 24 11.4229 22.0803 13.75 22" stroke="url(#paint8_linear_360_401)" stroke-width="1.5" stroke-miterlimit="7.3333"/>
<path d="M9.75 11.0415C9.75 11.0415 11.4229 9.12183 13.75 9.0415" stroke="url(#paint9_linear_360_401)" stroke-width="1.5" stroke-miterlimit="7.3333"/>
<path d="M22.75 24C22.75 24 24.4229 22.0803 26.75 22" stroke="url(#paint10_linear_360_401)" stroke-width="1.5" stroke-miterlimit="7.3333"/>
<path d="M22.75 11.0415C22.75 11.0415 24.4229 9.12183 26.75 9.0415" stroke="url(#paint11_linear_360_401)" stroke-width="1.5" stroke-miterlimit="7.3333"/>
<defs>
<linearGradient id="paint0_linear_360_401" x1="8.75" y1="16.5" x2="8.75" y2="25.5" gradientUnits="userSpaceOnUse">
<stop offset="1"/>
</linearGradient>
<linearGradient id="paint1_linear_360_401" x1="8.75" y1="3.5" x2="8.75" y2="12.5" gradientUnits="userSpaceOnUse">
<stop offset="1"/>
</linearGradient>
<linearGradient id="paint2_linear_360_401" x1="21.75" y1="16.5" x2="21.75" y2="25.5" gradientUnits="userSpaceOnUse">
<stop offset="1"/>
</linearGradient>
<linearGradient id="paint3_linear_360_401" x1="21.75" y1="3.5" x2="21.75" y2="12.5" gradientUnits="userSpaceOnUse">
<stop offset="1"/>
</linearGradient>
<linearGradient id="paint4_linear_360_401" x1="7" y1="21.4585" x2="7" y2="26.5002" gradientUnits="userSpaceOnUse">
<stop offset="1"/>
</linearGradient>
<linearGradient id="paint5_linear_360_401" x1="7" y1="8.5" x2="7" y2="13.5417" gradientUnits="userSpaceOnUse">
<stop offset="1"/>
</linearGradient>
<linearGradient id="paint6_linear_360_401" x1="20" y1="21.4585" x2="20" y2="26.5002" gradientUnits="userSpaceOnUse">
<stop offset="1"/>
</linearGradient>
<linearGradient id="paint7_linear_360_401" x1="20" y1="8.5" x2="20" y2="13.5417" gradientUnits="userSpaceOnUse">
<stop offset="1"/>
</linearGradient>
<linearGradient id="paint8_linear_360_401" x1="11.75" y1="22" x2="11.75" y2="24" gradientUnits="userSpaceOnUse">
<stop offset="1"/>
</linearGradient>
<linearGradient id="paint9_linear_360_401" x1="11.75" y1="9.0415" x2="11.75" y2="11.0415" gradientUnits="userSpaceOnUse">
<stop offset="1"/>
</linearGradient>
<linearGradient id="paint10_linear_360_401" x1="24.75" y1="22" x2="24.75" y2="24" gradientUnits="userSpaceOnUse">
<stop offset="1"/>
</linearGradient>
<linearGradient id="paint11_linear_360_401" x1="24.75" y1="9.0415" x2="24.75" y2="11.0415" gradientUnits="userSpaceOnUse">
<stop offset="1"/>
</linearGradient>
</defs>
</svg>
