<svg width="30" height="30" viewBox="0 0 30 30" fill="none" xmlns="http://www.w3.org/2000/svg">
<path d="M3.35181 4.7019C2.82311 5.2306 2.60083 5.89293 2.49812 6.65688C2.39986 7.38775 2.39988 8.31348 2.3999 9.44631V9.5V19.5V19.5537C2.39988 20.6865 2.39986 21.6123 2.49812 22.3431C2.60083 23.1071 2.82311 23.7694 3.35181 24.2981C3.8805 24.8268 4.54284 25.0491 5.30679 25.1518C6.03765 25.25 6.96338 25.25 8.09622 25.25H8.1499H12.1499H12.2036C13.3364 25.25 14.2622 25.25 14.993 25.1518C15.757 25.0491 16.4193 24.8268 16.948 24.2981C17.4767 23.7694 17.699 23.1071 17.8017 22.3431C17.8999 21.6123 17.8999 20.6865 17.8999 19.5537V19.5V9.5V9.44631C17.8999 8.31348 17.8999 7.38775 17.8017 6.65688C17.699 5.89293 17.4767 5.2306 16.948 4.7019C16.4193 4.17321 15.757 3.95093 14.993 3.84822C14.2622 3.74996 13.3364 3.74998 12.2036 3.75H12.1499H8.1499H8.09621C6.96338 3.74998 6.03765 3.74996 5.30679 3.84822C4.54284 3.95093 3.8805 4.17321 3.35181 4.7019Z" stroke="url(#paint0_linear_360_387)" stroke-width="1.5"/>
<path d="M20.6499 3.75C19.4073 3.75 18.3999 4.75736 18.3999 6V23C18.3999 24.2426 19.4073 25.25 20.6499 25.25C21.8925 25.25 22.8999 24.2426 22.8999 23V6C22.8999 4.75736 21.8925 3.75 20.6499 3.75Z" stroke="url(#paint1_linear_360_387)" stroke-width="1.5"/>
<path d="M25.6499 3.75C24.4073 3.75 23.3999 4.75736 23.3999 6V23C23.3999 24.2426 24.4073 25.25 25.6499 25.25C26.8925 25.25 27.8999 24.2426 27.8999 23V6C27.8999 4.75736 26.8925 3.75 25.6499 3.75Z" stroke="url(#paint2_linear_360_387)" stroke-width="1.5"/>
<path d="M2.1499 18.071C7.36901 13.3145 11.1252 20.4002 14.1499 25.5" stroke="url(#paint3_linear_360_387)" stroke-width="1.5" stroke-miterlimit="7.3333"/>
<path d="M11.6499 21.4999C11.6499 21.4999 13.1499 17.9999 18.1499 19.4999" stroke="url(#paint4_linear_360_387)" stroke-width="1.5" stroke-miterlimit="7.3333"/>
<defs>
<linearGradient id="paint0_linear_360_387" x1="10.1499" y1="4.5" x2="10.1499" y2="24.5" gradientUnits="userSpaceOnUse">
<stop offset="1"/>
</linearGradient>
<linearGradient id="paint1_linear_360_387" x1="20.6499" y1="4.5" x2="20.6499" y2="24.5" gradientUnits="userSpaceOnUse">
<stop offset="1"/>
</linearGradient>
<linearGradient id="paint2_linear_360_387" x1="25.6499" y1="4.5" x2="25.6499" y2="24.5" gradientUnits="userSpaceOnUse">
<stop offset="1"/>
</linearGradient>
<linearGradient id="paint3_linear_360_387" x1="8.1499" y1="16.5" x2="8.1499" y2="25.5" gradientUnits="userSpaceOnUse">
<stop offset="1"/>
</linearGradient>
<linearGradient id="paint4_linear_360_387" x1="14.8999" y1="19.1262" x2="14.8999" y2="21.4999" gradientUnits="userSpaceOnUse">
<stop offset="1"/>
</linearGradient>
</defs>
</svg>
