<svg width="30" height="30" viewBox="0 0 30 30" fill="none" xmlns="http://www.w3.org/2000/svg">
<path d="M4.54361 4.54361C3.84406 5.24316 3.53635 6.12842 3.39093 7.21007C3.24997 8.25853 3.24998 9.59638 3.25 11.2773V11.3333V18.6667V18.7227C3.24998 20.4036 3.24997 21.7415 3.39093 22.7899C3.53635 23.8716 3.84406 24.7568 4.54361 25.4564C5.24316 26.1559 6.12842 26.4636 7.21007 26.6091C8.25853 26.75 9.59638 26.75 11.2774 26.75H11.3333H18.6667H18.7226C20.4036 26.75 21.7415 26.75 22.7899 26.6091C23.8716 26.4636 24.7568 26.1559 25.4564 25.4564C26.1559 24.7568 26.4636 23.8716 26.6091 22.7899C26.75 21.7415 26.75 20.4036 26.75 18.7226V18.6667V11.3333V11.2773C26.75 9.59638 26.75 8.25853 26.6091 7.21007C26.4636 6.12842 26.1559 5.24316 25.4564 4.54361C24.7568 3.84406 23.8716 3.53635 22.7899 3.39093C21.7415 3.24997 20.4036 3.24998 18.7227 3.25H18.6667H11.3333H11.2773C9.59638 3.24998 8.25853 3.24997 7.21007 3.39093C6.12842 3.53635 5.24316 3.84406 4.54361 4.54361Z" stroke="url(#paint0_linear_360_466)" stroke-width="1.5"/>
<path d="M10.4848 10.8927C11.1412 10.2607 11.1412 9.23598 10.4848 8.60394C9.82846 7.9719 8.76431 7.9719 8.10797 8.60394C7.45162 9.23598 7.45162 10.2607 8.10797 10.8927C8.76431 11.5248 9.82846 11.5248 10.4848 10.8927Z" stroke="url(#paint1_linear_360_466)" stroke-width="1.5"/>
<path d="M8 15.7222H22" stroke="url(#paint2_linear_360_466)" stroke-width="1.5" stroke-linecap="round"/>
<path d="M8 21.5H16" stroke="url(#paint3_linear_360_466)" stroke-width="1.5" stroke-linecap="round"/>
<path d="M8 18.6111H22" stroke="url(#paint4_linear_360_466)" stroke-width="1.5" stroke-linecap="round"/>
<defs>
<linearGradient id="paint0_linear_360_466" x1="15" y1="4" x2="15" y2="26" gradientUnits="userSpaceOnUse">
<stop offset="1"/>
</linearGradient>
<linearGradient id="paint1_linear_360_466" x1="9.1951" y1="8.80542" x2="7.94764" y2="10.1009" gradientUnits="userSpaceOnUse">
<stop offset="1"/>
</linearGradient>
<linearGradient id="paint2_linear_360_466" x1="nan" y1="nan" x2="nan" y2="nan" gradientUnits="userSpaceOnUse">
<stop offset="1"/>
</linearGradient>
<linearGradient id="paint3_linear_360_466" x1="nan" y1="nan" x2="nan" y2="nan" gradientUnits="userSpaceOnUse">
<stop offset="1"/>
</linearGradient>
<linearGradient id="paint4_linear_360_466" x1="nan" y1="nan" x2="nan" y2="nan" gradientUnits="userSpaceOnUse">
<stop offset="1"/>
</linearGradient>
</defs>
</svg>
