<svg width="30" height="30" viewBox="0 0 30 30" fill="none" xmlns="http://www.w3.org/2000/svg">
<path d="M22 13.56V8.49084C22 7.93344 22 7.65474 21.9042 7.39965C21.8083 7.14456 21.6248 6.93482 21.2577 6.51533L19.0782 4.02449C18.637 3.52023 18.4164 3.2681 18.121 3.13405C17.8256 3 17.4906 3 16.8205 3H7C5.58579 3 4.87868 3 4.43934 3.43934C4 3.87868 4 4.58579 4 6V24C4 25.4142 4 26.1213 4.43934 26.5607C4.87868 27 5.58579 27 7 27H19C20.4142 27 21.1213 27 21.5607 26.5607C22 26.1213 22 25.4142 22 24V21.72" stroke="url(#paint0_linear_360_481)" stroke-width="1.5"/>
<path d="M17 3V7C17 7.55228 17.4477 8 18 8H19.5H22" stroke="url(#paint1_linear_360_481)" stroke-width="1.5"/>
<path d="M24.5 13.25H12.5C11.2574 13.25 10.25 14.2574 10.25 15.5V19.5C10.25 20.7426 11.2574 21.75 12.5 21.75H24.5C25.7426 21.75 26.75 20.7426 26.75 19.5V15.5C26.75 14.2574 25.7426 13.25 24.5 13.25Z" stroke="url(#paint2_linear_360_481)" stroke-width="1.5"/>
<path fill-rule="evenodd" clip-rule="evenodd" d="M13.56 15.65C13.79 15.55 14.05 15.5 14.32 15.5C14.59 15.5 14.85 15.55 15.08 15.65C15.3 15.75 15.49 15.9 15.63 16.09C15.77 16.28 15.84 16.51 15.85 16.75V17.01H14.85L14.82 16.79C14.81 16.69 14.77 16.63 14.69 16.58C14.6 16.52 14.48 16.48 14.31 16.48C14.19 16.48 14.09 16.5 14.02 16.53C13.95 16.56 13.9 16.6 13.87 16.64C13.84 16.68 13.83 16.72 13.83 16.77C13.83 16.82 13.83 16.84 13.85 16.86C13.87 16.89 13.9 16.92 13.94 16.94C13.99 16.97 14.05 17 14.11 17.02C14.18 17.04 14.25 17.06 14.31 17.08L14.66 17.17C14.79 17.2 14.92 17.24 15.05 17.3C15.19 17.36 15.33 17.43 15.45 17.53C15.58 17.63 15.69 17.76 15.77 17.9C15.86 18.06 15.9 18.25 15.9 18.44C15.9 18.69 15.83 18.92 15.7 19.13C15.57 19.33 15.37 19.49 15.14 19.6C14.9 19.71 14.62 19.76 14.31 19.76C14 19.76 13.74 19.71 13.5 19.61C13.26 19.51 13.07 19.36 12.93 19.16C12.79 18.96 12.71 18.72 12.7 18.46V18.2H13.73L13.75 18.43C13.75 18.52 13.78 18.57 13.82 18.62C13.87 18.67 13.92 18.71 14 18.74C14.09 18.77 14.19 18.79 14.3 18.79C14.43 18.79 14.53 18.77 14.62 18.74C14.71 18.7 14.77 18.66 14.81 18.61C14.84 18.57 14.86 18.52 14.86 18.45C14.86 18.39 14.85 18.37 14.83 18.35C14.83 18.35 14.75 18.28 14.67 18.24C14.58 18.2 14.48 18.16 14.36 18.13L13.93 18.01C13.61 17.92 13.34 17.79 13.14 17.6C12.91 17.39 12.8 17.12 12.8 16.8C12.8 16.54 12.87 16.31 13.02 16.1C13.16 15.9 13.35 15.76 13.58 15.65H13.56ZM23.21 18.28H22.38V17.33H24.31V17.99C24.31 18.33 24.24 18.64 24.08 18.91C23.93 19.17 23.71 19.38 23.45 19.52C23.18 19.66 22.88 19.73 22.55 19.73C22.18 19.73 21.85 19.64 21.55 19.47C21.26 19.29 21.04 19.04 20.88 18.72C20.72 18.4 20.65 18.03 20.65 17.61C20.65 17.3 20.69 17.01 20.78 16.75C20.87 16.49 21 16.27 21.17 16.08C21.34 15.89 21.54 15.75 21.77 15.65C22 15.55 22.25 15.5 22.52 15.5C22.74 15.5 22.95 15.53 23.15 15.6C23.35 15.67 23.52 15.76 23.68 15.89C23.84 16.02 23.97 16.16 24.07 16.34C24.14 16.45 24.19 16.57 24.23 16.69L24.33 17L23.26 17.05L23.19 16.9C23.19 16.9 23.15 16.83 23.13 16.8C23.09 16.73 23.04 16.68 22.98 16.64C22.93 16.6 22.86 16.56 22.79 16.54C22.72 16.52 22.63 16.5 22.53 16.5C22.37 16.5 22.23 16.54 22.11 16.62C21.99 16.7 21.89 16.81 21.81 16.98C21.73 17.14 21.69 17.35 21.69 17.62C21.69 17.89 21.73 18.1 21.81 18.26C21.89 18.43 21.99 18.54 22.11 18.62C22.23 18.7 22.38 18.74 22.55 18.74C22.72 18.74 22.84 18.71 22.95 18.65C23.06 18.59 23.14 18.51 23.19 18.41C23.21 18.36 23.21 18.28 23.21 18.28ZM16.36 15.55H17.49L18.34 18.05L19.2 15.55H20.33L18.84 19.69H17.85L16.36 15.55Z" fill="url(#paint3_linear_360_481)"/>
<defs>
<linearGradient id="paint0_linear_360_481" x1="13" y1="3" x2="13" y2="27" gradientUnits="userSpaceOnUse">
<stop offset="1"/>
</linearGradient>
<linearGradient id="paint1_linear_360_481" x1="19.5" y1="3" x2="19.5" y2="8" gradientUnits="userSpaceOnUse">
<stop offset="1"/>
</linearGradient>
<linearGradient id="paint2_linear_360_481" x1="18.5" y1="14" x2="18.5" y2="21" gradientUnits="userSpaceOnUse">
<stop offset="1"/>
</linearGradient>
<linearGradient id="paint3_linear_360_481" x1="18.515" y1="15.5" x2="18.515" y2="19.76" gradientUnits="userSpaceOnUse">
<stop offset="1"/>
</linearGradient>
</defs>
</svg>
