<svg width="30" height="30" viewBox="0 0 30 30" fill="none" xmlns="http://www.w3.org/2000/svg">
<path d="M21 4.75H9C6.65279 4.75 4.75 6.65279 4.75 9V21C4.75 23.3472 6.65279 25.25 9 25.25H21C23.3472 25.25 25.25 23.3472 25.25 21V9C25.25 6.65279 23.3472 4.75 21 4.75Z" stroke="url(#paint0_linear_360_490)" stroke-width="1.5"/>
<path d="M10 19C11.7391 19 13.4783 17.7586 14.3478 15.8276C15.2174 13.8966 16.5217 12.1034 17.6812 11.5517C18.6087 11.1103 19.6135 11 20 11" stroke="url(#paint1_linear_360_490)" stroke-width="1.5" stroke-linecap="round"/>
<defs>
<linearGradient id="paint0_linear_360_490" x1="15" y1="4" x2="15" y2="26" gradientUnits="userSpaceOnUse">
<stop offset="1"/>
</linearGradient>
<linearGradient id="paint1_linear_360_490" x1="15" y1="11" x2="15" y2="19" gradientUnits="userSpaceOnUse">
<stop offset="1"/>
</linearGradient>
</defs>
</svg>
