<svg width="30" height="30" viewBox="0 0 30 30" fill="none" xmlns="http://www.w3.org/2000/svg">
<path d="M16 11C19.5 11.5 22.5 12.5 25.5 16" stroke="url(#paint0_linear_360_493)" stroke-width="1.5"/>
<path d="M22.5 13.0001C22.6429 12.4668 25 10.5001 28 11.0001" stroke="url(#paint1_linear_360_493)" stroke-width="1.5"/>
<path d="M2 22C5.5 22.5 8.5 23.5 11.5 27" stroke="url(#paint2_linear_360_493)" stroke-width="1.5"/>
<path d="M2 6.11923C4 5.7125 8.6 6.11923 11 11" stroke="url(#paint3_linear_360_493)" stroke-width="1.5"/>
<path d="M16 22.0668C17.6667 21.7091 22 22.7081 24 27" stroke="url(#paint4_linear_360_493)" stroke-width="1.5"/>
<path d="M10 9C10.6667 7.75122 11.3333 6.50244 14 6" stroke="url(#paint5_linear_360_493)" stroke-width="1.5"/>
<path d="M23 25C23.8333 23.7512 24.6667 22.5024 28 22" stroke="url(#paint6_linear_360_493)" stroke-width="1.5"/>
<path d="M8.5 24.0001C8.64286 23.4668 11 21.5001 14 22.0001" stroke="url(#paint7_linear_360_493)" stroke-width="1.5"/>
<path d="M25 2.25H19C17.4812 2.25 16.25 3.48122 16.25 5V13C16.25 14.5188 17.4812 15.75 19 15.75H25C26.5188 15.75 27.75 14.5188 27.75 13V5C27.75 3.48122 26.5188 2.25 25 2.25Z" stroke="url(#paint8_linear_360_493)" stroke-width="1.5"/>
<path d="M11 13.25H5C3.48122 13.25 2.25 14.4812 2.25 16V24C2.25 25.5188 3.48122 26.75 5 26.75H11C12.5188 26.75 13.75 25.5188 13.75 24V16C13.75 14.4812 12.5188 13.25 11 13.25Z" stroke="url(#paint9_linear_360_493)" stroke-width="1.5"/>
<path d="M11 2.25H5C3.48122 2.25 2.25 3.48122 2.25 5V8C2.25 9.51878 3.48122 10.75 5 10.75H11C12.5188 10.75 13.75 9.51878 13.75 8V5C13.75 3.48122 12.5188 2.25 11 2.25Z" stroke="url(#paint10_linear_360_493)" stroke-width="1.5"/>
<path d="M25 18.25H19C17.4812 18.25 16.25 19.4812 16.25 21V24C16.25 25.5188 17.4812 26.75 19 26.75H25C26.5188 26.75 27.75 25.5188 27.75 24V21C27.75 19.4812 26.5188 18.25 25 18.25Z" stroke="url(#paint11_linear_360_493)" stroke-width="1.5"/>
<defs>
<linearGradient id="paint0_linear_360_493" x1="20.75" y1="11" x2="20.75" y2="16" gradientUnits="userSpaceOnUse">
<stop offset="1"/>
</linearGradient>
<linearGradient id="paint1_linear_360_493" x1="25.25" y1="10.9194" x2="25.25" y2="13.0001" gradientUnits="userSpaceOnUse">
<stop offset="1"/>
</linearGradient>
<linearGradient id="paint2_linear_360_493" x1="6.75" y1="22" x2="6.75" y2="27" gradientUnits="userSpaceOnUse">
<stop offset="1"/>
</linearGradient>
<linearGradient id="paint3_linear_360_493" x1="6.5" y1="6" x2="6.5" y2="11" gradientUnits="userSpaceOnUse">
<stop offset="1"/>
</linearGradient>
<linearGradient id="paint4_linear_360_493" x1="20" y1="22" x2="20" y2="27" gradientUnits="userSpaceOnUse">
<stop offset="1"/>
</linearGradient>
<linearGradient id="paint5_linear_360_493" x1="12" y1="6" x2="12" y2="9" gradientUnits="userSpaceOnUse">
<stop offset="1"/>
</linearGradient>
<linearGradient id="paint6_linear_360_493" x1="25.5" y1="22" x2="25.5" y2="25" gradientUnits="userSpaceOnUse">
<stop offset="1"/>
</linearGradient>
<linearGradient id="paint7_linear_360_493" x1="11.25" y1="21.9194" x2="11.25" y2="24.0001" gradientUnits="userSpaceOnUse">
<stop offset="1"/>
</linearGradient>
<linearGradient id="paint8_linear_360_493" x1="22" y1="3" x2="22" y2="15" gradientUnits="userSpaceOnUse">
<stop offset="1"/>
</linearGradient>
<linearGradient id="paint9_linear_360_493" x1="8" y1="14" x2="8" y2="26" gradientUnits="userSpaceOnUse">
<stop offset="1"/>
</linearGradient>
<linearGradient id="paint10_linear_360_493" x1="8" y1="3" x2="8" y2="10" gradientUnits="userSpaceOnUse">
<stop offset="1"/>
</linearGradient>
<linearGradient id="paint11_linear_360_493" x1="22" y1="19" x2="22" y2="26" gradientUnits="userSpaceOnUse">
<stop offset="1"/>
</linearGradient>
</defs>
</svg>
