<svg width="30" height="30" viewBox="0 0 30 30" fill="none" xmlns="http://www.w3.org/2000/svg">
<path d="M26.7789 6.97306L26.2987 7.5392M26.7789 6.97306C26.2099 6.49038 25.4928 6.39439 24.7315 6.42281C23.9846 6.4507 23.0297 6.60858 21.8532 6.8031L21.8 6.8119C19.7148 7.15661 17.2696 7.45 15 7.45C12.7304 7.45 10.2852 7.15661 8.20002 6.8119L8.14685 6.8031C6.97031 6.60858 6.01543 6.4507 5.2685 6.42281C4.50716 6.39439 3.79011 6.49038 3.22109 6.97306C2.6582 7.45053 2.44251 8.11992 2.34479 8.85669C2.24995 9.57175 2.24997 10.4988 2.25 11.6334V11.6885V18.3115V18.3666C2.24997 19.5012 2.24995 20.4283 2.34479 21.1433C2.44251 21.8801 2.6582 22.5495 3.22109 23.0269C3.79011 23.5096 4.50717 23.6056 5.2685 23.5772C6.01542 23.5493 6.97027 23.3914 8.14678 23.1969L8.20003 23.1881C10.2852 22.8434 12.7304 22.55 15 22.55C17.2696 22.55 19.7148 22.8434 21.8 23.1881L21.8532 23.1969C23.0297 23.3914 23.9846 23.5493 24.7315 23.5772C25.4928 23.6056 26.2099 23.5096 26.7789 23.0269C27.3418 22.5495 27.5575 21.8801 27.6552 21.1433C27.75 20.4283 27.75 19.5012 27.75 18.3666V18.3115V11.6885V11.6334C27.75 10.4988 27.75 9.57175 27.6552 8.85669C27.5575 8.11992 27.3418 7.45053 26.7789 6.97306Z" stroke="url(#paint0_linear_360_512)" stroke-width="1.5"/>
<path d="M2.5 19C3.94503 17.8428 4.66755 17.2642 5.47275 17.3395C5.50547 17.3426 5.53811 17.3465 5.57063 17.3511C6.37115 17.4661 6.93845 18.1975 8.07307 19.6603L9.5 21.5" stroke="url(#paint1_linear_360_512)" stroke-width="1.5" stroke-linecap="round"/>
<path d="M9 22.5L12.7308 16.9728C13.6187 15.6575 14.0626 14.9998 14.6705 14.7772C14.9998 14.6567 15.3549 14.6248 15.7004 14.6848C16.3382 14.7956 16.8921 15.3637 18 16.5" stroke="url(#paint2_linear_360_512)" stroke-width="1.5" stroke-linecap="round"/>
<path d="M14 22.5L17.7069 16.9726C18.8005 15.3419 19.3472 14.5266 20.189 14.3799C21.0308 14.2333 21.8212 14.8156 23.4018 15.9803L27.5 19" stroke="url(#paint3_linear_360_512)" stroke-width="1.5" stroke-linecap="round"/>
<defs>
<linearGradient id="paint0_linear_360_512" x1="15" y1="6.5" x2="15" y2="23.5" gradientUnits="userSpaceOnUse">
<stop offset="1"/>
</linearGradient>
<linearGradient id="paint1_linear_360_512" x1="6" y1="16.5" x2="6" y2="21.5" gradientUnits="userSpaceOnUse">
<stop offset="1"/>
</linearGradient>
<linearGradient id="paint2_linear_360_512" x1="13.5" y1="13.5" x2="13.5" y2="22.5" gradientUnits="userSpaceOnUse">
<stop offset="1"/>
</linearGradient>
<linearGradient id="paint3_linear_360_512" x1="20.75" y1="13.5" x2="20.75" y2="22.5" gradientUnits="userSpaceOnUse">
<stop offset="1"/>
</linearGradient>
</defs>
</svg>
