<svg width="30" height="30" viewBox="0 0 30 30" fill="none" xmlns="http://www.w3.org/2000/svg">
<path d="M9.5 12C9.08579 12 8.75 12.3358 8.75 12.75C8.75 13.1642 9.08579 13.5 9.5 13.5V12ZM13.25 13.5C13.6642 13.5 14 13.1642 14 12.75C14 12.3358 13.6642 12 13.25 12V13.5ZM9.5 7C9.08579 7 8.75 7.33579 8.75 7.75C8.75 8.16421 9.08579 8.5 9.5 8.5V7ZM18.25 8.5C18.6642 8.5 19 8.16421 19 7.75C19 7.33579 18.6642 7 18.25 7V8.5ZM9.5 17C9.08579 17 8.75 17.3358 8.75 17.75C8.75 18.1642 9.08579 18.5 9.5 18.5V17ZM11.375 18.5C11.7892 18.5 12.125 18.1642 12.125 17.75C12.125 17.3358 11.7892 17 11.375 17V18.5ZM9.5 13.5H13.25V12H9.5V13.5ZM9.5 8.5H18.25V7H9.5V8.5ZM9.5 18.5H11.375V17H9.5V18.5Z" fill="url(#paint0_linear_360_534)"/>
<path d="M20.75 28C24.4779 28 27.5 24.9779 27.5 21.25C27.5 17.5221 24.4779 14.5 20.75 14.5C17.0221 14.5 14 17.5221 14 21.25C14 24.9779 17.0221 28 20.75 28Z" stroke="url(#paint1_linear_360_534)" stroke-width="1.5"/>
<path d="M20.75 24.375C21.7855 24.375 22.625 23.6754 22.625 22.8125C22.625 21.9496 21.7855 21.25 20.75 21.25C19.7145 21.25 18.875 20.5504 18.875 19.6875C18.875 18.8246 19.7145 18.125 20.75 18.125M20.75 24.375C19.7145 24.375 18.875 23.6754 18.875 22.8125M20.75 24.375V25M20.75 18.125V17.5M20.75 18.125C21.7855 18.125 22.625 18.8246 22.625 19.6875" stroke="url(#paint2_linear_360_534)" stroke-width="1.5" stroke-linecap="round"/>
<path d="M24 12V9C24 5.70017 24 4.05025 22.9749 3.02513C21.9497 2 20.2998 2 17 2H9C5.70017 2 4.05025 2 3.02513 3.02513C2 4.05025 2 5.70017 2 9V19C2 22.2998 2 23.9497 3.02513 24.9749C4.05025 26 5.70017 26 9 26H12" stroke="url(#paint3_linear_360_534)" stroke-width="1.5" stroke-linecap="round"/>
<defs>
<linearGradient id="paint0_linear_360_534" x1="13.875" y1="7.75" x2="13.875" y2="17.75" gradientUnits="userSpaceOnUse">
<stop offset="1"/>
</linearGradient>
<linearGradient id="paint1_linear_360_534" x1="20.75" y1="13.75" x2="20.75" y2="28.75" gradientUnits="userSpaceOnUse">
<stop offset="1"/>
</linearGradient>
<linearGradient id="paint2_linear_360_534" x1="20.75" y1="17.5" x2="20.75" y2="25" gradientUnits="userSpaceOnUse">
<stop offset="1"/>
</linearGradient>
<linearGradient id="paint3_linear_360_534" x1="13" y1="2" x2="13" y2="26" gradientUnits="userSpaceOnUse">
<stop offset="1"/>
</linearGradient>
</defs>
</svg>
