<svg width="30" height="30" viewBox="0 0 30 30" fill="none" xmlns="http://www.w3.org/2000/svg">
<path d="M15.8336 13.4774C15.4902 12.4925 15.3184 12 15 12C14.6816 12 14.5098 12.4925 14.1663 13.4774L13.9176 14.1906C13.8227 14.4629 13.7752 14.599 13.66 14.677C13.5448 14.755 13.3912 14.755 13.084 14.755H12.279C11.1675 14.755 10.6117 14.755 10.5133 15.0371C10.4149 15.3193 10.8645 15.6236 11.7638 16.2323L12.415 16.6732C12.6635 16.8414 12.7878 16.9255 12.8318 17.0517C12.8758 17.1779 12.8284 17.314 12.7334 17.5862L12.4847 18.2995C12.1412 19.2844 11.9695 19.7769 12.2271 19.9513C12.4847 20.1256 12.9343 19.8213 13.8336 19.2126L14.4848 18.7717C14.7333 18.6035 14.8576 18.5194 15 18.5194C15.1424 18.5194 15.2667 18.6035 15.5152 18.7717L16.1664 19.2126C17.0657 19.8213 17.5153 20.1256 17.7729 19.9513C18.0305 19.7769 17.8588 19.2844 17.5153 18.2995L17.2666 17.5862C17.1716 17.314 17.1242 17.1779 17.1682 17.0517C17.2122 16.9255 17.3364 16.8414 17.585 16.6732L18.2362 16.2323C19.1354 15.6236 19.5851 15.3193 19.4867 15.0371C19.3883 14.755 18.8325 14.755 17.721 14.755H16.916C16.6088 14.755 16.4552 14.755 16.34 14.677C16.2248 14.599 16.1773 14.4629 16.0824 14.1906L15.8336 13.4774Z" stroke="url(#paint0_linear_360_545)" stroke-width="1.5"/>
<path d="M10.5 13.1111C10.4996 13.0862 10.4952 13.0615 10.4867 13.0371C10.3883 12.755 9.83251 12.755 8.72098 12.755H7.91604C7.60882 12.755 7.45521 12.755 7.34 12.677C7.22479 12.599 7.17733 12.4629 7.08239 12.1906L6.83365 11.4774C6.49017 10.4925 6.31843 10 6 10C5.68157 10 5.50983 10.4925 5.16635 11.4774L4.91761 12.1906C4.82267 12.4629 4.77521 12.599 4.66 12.677C4.54479 12.755 4.39118 12.755 4.08396 12.755H3.27902C2.16749 12.755 1.61172 12.755 1.51332 13.0371C1.41492 13.3193 1.86455 13.6236 2.7638 14.2323L3.41501 14.6732C3.66355 14.8414 3.78783 14.9255 3.83183 15.0517C3.87584 15.1779 3.82837 15.314 3.73343 15.5862L3.48469 16.2995C3.14121 17.2844 2.96947 17.7769 3.22708 17.9513C3.48469 18.1256 3.93432 17.8213 4.83357 17.2126L5.48477 16.7717C5.73332 16.6035 5.8576 16.5194 6 16.5194C6.1424 16.5194 6.26668 16.6035 6.51522 16.7717L7.16643 17.2126C8.06568 17.8213 8.51531 18.1256 8.77292 17.9513C9.03053 17.7769 8.85879 17.2844 8.51531 16.2995L8.26657 15.5862C8.17163 15.314 8.12416 15.1779 8.16817 15.0517C8.19678 14.9697 8.25934 14.9054 8.36793 14.8242" stroke="url(#paint1_linear_360_545)" stroke-width="1.5" stroke-linecap="round"/>
<path d="M19.5 13.1111C19.5004 13.0862 19.5048 13.0615 19.5133 13.0371C19.6117 12.755 20.1675 12.755 21.279 12.755H22.0839C22.3912 12.755 22.5448 12.755 22.66 12.677C22.7752 12.599 22.8227 12.4629 22.9176 12.1906L23.1663 11.4774C23.5098 10.4925 23.6816 10 24 10C24.3184 10 24.4902 10.4925 24.8336 11.4774L25.0824 12.1906C25.1773 12.4629 25.2248 12.599 25.34 12.677C25.4552 12.755 25.6088 12.755 25.916 12.755H26.721C27.8325 12.755 28.3883 12.755 28.4867 13.0371C28.5851 13.3193 28.1355 13.6236 27.2362 14.2323L26.585 14.6732C26.3364 14.8414 26.2122 14.9255 26.1682 15.0517C26.1242 15.1779 26.1716 15.314 26.2666 15.5862L26.5153 16.2995C26.8588 17.2844 27.0305 17.7769 26.7729 17.9513C26.5153 18.1256 26.0657 17.8213 25.1664 17.2126L24.5152 16.7717C24.2667 16.6035 24.1424 16.5194 24 16.5194C23.8576 16.5194 23.7333 16.6035 23.4848 16.7717L22.8336 17.2126C21.9343 17.8213 21.4847 18.1256 21.2271 17.9513C20.9694 17.7769 21.1412 17.2844 21.4847 16.2995L21.7334 15.5862C21.8284 15.314 21.8758 15.1779 21.8318 15.0517C21.8032 14.9697 21.7406 14.9054 21.632 14.8242" stroke="url(#paint2_linear_360_545)" stroke-width="1.5" stroke-linecap="round"/>
<defs>
<linearGradient id="paint0_linear_360_545" x1="15" y1="12" x2="15" y2="20" gradientUnits="userSpaceOnUse">
<stop offset="1"/>
</linearGradient>
<linearGradient id="paint1_linear_360_545" x1="6" y1="10" x2="6" y2="18" gradientUnits="userSpaceOnUse">
<stop offset="1"/>
</linearGradient>
<linearGradient id="paint2_linear_360_545" x1="24" y1="10" x2="24" y2="18" gradientUnits="userSpaceOnUse">
<stop offset="1"/>
</linearGradient>
</defs>
</svg>
