<svg width="30" height="30" viewBox="0 0 30 30" fill="none" xmlns="http://www.w3.org/2000/svg">
<path d="M15.5428 22.25C7.74317 22.25 4.45412 17.473 3.23422 15.0195C4.48662 12.6214 8.2382 8.22376 14.4535 7.77838C17.6227 7.55128 20.33 8.71671 22.4569 10.3149C24.4675 11.8258 25.9233 13.6983 26.7034 15.0482C25.4468 17.6537 21.7061 22.25 15.5428 22.25Z" stroke="url(#paint0_linear_360_553)" stroke-width="1.5" stroke-linecap="round"/>
<path d="M18.4801 15.423C18.4801 15.7658 18.423 16.0972 18.2973 16.4401C17.7373 17.9715 16.0344 18.7487 14.5144 18.1887C12.983 17.6287 12.183 15.9372 12.7544 14.4058C13.3144 12.8744 15.0173 12.0972 16.5487 12.6572C16.5944 12.6687 16.6401 12.6915 16.6858 12.7144" stroke="url(#paint1_linear_360_553)" stroke-width="1.5" stroke-linecap="round"/>
<path d="M16.6295 12.7144C16.4466 12.8744 16.3095 13.0801 16.218 13.3315C15.898 14.1886 16.3438 15.1486 17.2009 15.4572C17.6123 15.6058 18.0466 15.5829 18.4238 15.4229" stroke="url(#paint2_linear_360_553)" stroke-width="1.5" stroke-linecap="round"/>
<defs>
<linearGradient id="paint0_linear_360_553" x1="14.9713" y1="7.00001" x2="14.9713" y2="23" gradientUnits="userSpaceOnUse">
<stop offset="1"/>
</linearGradient>
<linearGradient id="paint1_linear_360_553" x1="15.5249" y1="12.4756" x2="15.5249" y2="18.3703" gradientUnits="userSpaceOnUse">
<stop offset="1"/>
</linearGradient>
<linearGradient id="paint2_linear_360_553" x1="17.269" y1="12.7144" x2="17.269" y2="15.5568" gradientUnits="userSpaceOnUse">
<stop offset="1"/>
</linearGradient>
</defs>
</svg>
