<svg width="30" height="30" viewBox="0 0 30 30" fill="none" xmlns="http://www.w3.org/2000/svg">
<path d="M11.578 12.0466C11.2356 12.2797 11.1469 12.7462 11.38 13.0886C11.613 13.4311 12.0795 13.5197 12.422 13.2867L11.578 12.0466ZM18.422 9.20337C18.7644 8.97032 18.8531 8.5038 18.62 8.16137C18.387 7.81893 17.9205 7.73025 17.578 7.9633L18.422 9.20337ZM12.422 16.7133C12.0795 16.4803 11.613 16.5689 11.38 16.9114C11.1469 17.2538 11.2356 17.7203 11.578 17.9534L12.422 16.7133ZM17.578 22.0367C17.9205 22.2697 18.387 22.1811 18.62 21.8386C18.8531 21.4962 18.7644 21.0297 18.422 20.7966L17.578 22.0367ZM11.25 15C11.25 16.1768 10.2627 17.1667 9 17.1667V18.6667C11.051 18.6667 12.75 17.0448 12.75 15H11.25ZM9 17.1667C7.7373 17.1667 6.75 16.1768 6.75 15H5.25C5.25 17.0448 6.94899 18.6667 9 18.6667V17.1667ZM6.75 15C6.75 13.8232 7.7373 12.8333 9 12.8333V11.3333C6.94899 11.3333 5.25 12.9552 5.25 15H6.75ZM9 12.8333C10.2627 12.8333 11.25 13.8232 11.25 15H12.75C12.75 12.9552 11.051 11.3333 9 11.3333V12.8333ZM12.422 13.2867L18.422 9.20337L17.578 7.9633L11.578 12.0466L12.422 13.2867ZM11.578 17.9534L17.578 22.0367L18.422 20.7966L12.422 16.7133L11.578 17.9534ZM23.25 22.5833C23.25 23.7602 22.2627 24.75 21 24.75V26.25C23.051 26.25 24.75 24.6282 24.75 22.5833H23.25ZM21 24.75C19.7373 24.75 18.75 23.7602 18.75 22.5833H17.25C17.25 24.6282 18.949 26.25 21 26.25V24.75ZM18.75 22.5833C18.75 21.4065 19.7373 20.4167 21 20.4167V18.9167C18.949 18.9167 17.25 20.5385 17.25 22.5833H18.75ZM21 20.4167C22.2627 20.4167 23.25 21.4065 23.25 22.5833H24.75C24.75 20.5385 23.051 18.9167 21 18.9167V20.4167ZM23.25 7.41667C23.25 8.59351 22.2627 9.58333 21 9.58333V11.0833C23.051 11.0833 24.75 9.46149 24.75 7.41667H23.25ZM21 9.58333C19.7373 9.58333 18.75 8.59351 18.75 7.41667H17.25C17.25 9.46149 18.949 11.0833 21 11.0833V9.58333ZM18.75 7.41667C18.75 6.23983 19.7373 5.25 21 5.25V3.75C18.949 3.75 17.25 5.37185 17.25 7.41667H18.75ZM21 5.25C22.2627 5.25 23.25 6.23983 23.25 7.41667H24.75C24.75 5.37185 23.051 3.75 21 3.75V5.25Z" fill="url(#paint0_linear_360_566)"/>
<defs>
<linearGradient id="paint0_linear_360_566" x1="15" y1="4.5" x2="15" y2="25.5" gradientUnits="userSpaceOnUse">
<stop offset="1"/>
</linearGradient>
</defs>
</svg>
