<svg width="30" height="30" viewBox="0 0 30 30" fill="none" xmlns="http://www.w3.org/2000/svg">
<path d="M17.8408 11.1C17.8408 12.5359 16.5689 13.7 14.9999 13.7C13.4309 13.7 12.159 12.5359 12.159 11.1C12.159 9.66406 13.4309 8.5 14.9999 8.5C16.5689 8.5 17.8408 9.66406 17.8408 11.1Z" stroke="url(#paint0_linear_360_591)" stroke-width="1.5"/>
<path d="M19.9716 18.575C19.9716 20.1904 20.6818 21.5 14.9999 21.5C9.31812 21.5 10.0284 20.1904 10.0284 18.575C10.0284 16.9596 11.862 15.65 14.9999 15.65C18.1379 15.65 19.9716 16.9596 19.9716 18.575Z" stroke="url(#paint1_linear_360_591)" stroke-width="1.5"/>
<path d="M21.1117 15.479C21.7745 15.2383 22.5888 15.1 23.5362 15.1C26.3376 15.1 27.9746 16.3088 27.9746 17.8C27.9746 19.2912 28.6086 20.5 23.5362 20.5C23.3967 20.5 23.2615 20.4991 23.1304 20.4973M26.0724 10.9C26.0724 12.2255 24.9369 13.3 23.5362 13.3C22.1355 13.3 21 12.2255 21 10.9C21 9.57452 22.1355 8.5 23.5362 8.5C24.9369 8.5 26.0724 9.57452 26.0724 10.9Z" stroke="url(#paint2_linear_360_591)" stroke-width="1.5" stroke-linecap="round"/>
<path d="M8.88828 15.479C8.2255 15.2383 7.41124 15.1 6.46379 15.1C3.66237 15.1 2.02536 16.3088 2.02536 17.8C2.02536 19.2912 1.39137 20.5 6.46379 20.5C6.60332 20.5 6.73853 20.4991 6.86955 20.4973M3.92758 10.9C3.92758 12.2255 5.06308 13.3 6.46379 13.3C7.8645 13.3 9 12.2255 9 10.9C9 9.57452 7.8645 8.5 6.46379 8.5C5.06308 8.5 3.92758 9.57452 3.92758 10.9Z" stroke="url(#paint3_linear_360_591)" stroke-width="1.5" stroke-linecap="round"/>
<defs>
<linearGradient id="paint0_linear_360_591" x1="15" y1="8.5" x2="15" y2="21.5" gradientUnits="userSpaceOnUse">
<stop offset="1"/>
</linearGradient>
<linearGradient id="paint1_linear_360_591" x1="15" y1="8.50002" x2="15" y2="21.5" gradientUnits="userSpaceOnUse">
<stop offset="1"/>
</linearGradient>
<linearGradient id="paint2_linear_360_591" x1="24.5" y1="8.5" x2="24.5" y2="20.5" gradientUnits="userSpaceOnUse">
<stop offset="1"/>
</linearGradient>
<linearGradient id="paint3_linear_360_591" x1="5.5" y1="8.5" x2="5.5" y2="20.5" gradientUnits="userSpaceOnUse">
<stop offset="1"/>
</linearGradient>
</defs>
</svg>
