<svg width="30" height="30" viewBox="0 0 30 30" fill="none" xmlns="http://www.w3.org/2000/svg">
<path d="M6.8269 22.499H11.973L13.6937 24.2067L13.6946 24.2076C14.4197 24.9308 15.5914 24.9308 16.3165 24.2076L16.3174 24.2067L18.0381 22.499H23.1731C25.4273 22.499 27.25 20.68 27.25 18.4264V9.32257C27.25 7.06894 25.4273 5.25 23.1731 5.25H6.8269C4.57273 5.25 2.75 7.06894 2.75 9.32257V18.4264C2.75 20.68 4.57273 22.499 6.8269 22.499Z" stroke="url(#paint0_linear_360_600)" stroke-width="1.5" stroke-miterlimit="10"/>
<path d="M9.28957 18.1988C9.57843 18.1857 10.4627 18.1124 11.3277 17.6575C12.2317 17.1821 13.11 16.285 13.247 14.7153L13.2499 14.6828V14.6501V11.1C13.2499 10.6306 12.8693 10.25 12.3999 10.25H9.11721C8.64776 10.25 8.26721 10.6306 8.26721 11.1V13.0798C8.26721 13.5493 8.64777 13.9298 9.11721 13.9298H9.86206M9.28957 18.1988L9.25556 17.4496M9.28957 18.1988C8.84454 18.219 8.49371 17.8994 8.42095 17.5073L8.25861 16.6324C8.17253 16.1685 8.47533 15.7533 8.89269 15.6494C9.27034 15.5552 9.64666 15.323 9.79224 14.994C9.87791 14.8004 9.90791 14.5039 9.88485 14.1618C9.87943 14.0814 9.87145 14.0034 9.86206 13.9298M9.86206 13.9298H10.4029C10.1221 13.9298 9.84703 13.7424 9.76974 13.4344C9.79186 13.5226 9.83348 13.7058 9.86206 13.9298Z" stroke="url(#paint1_linear_360_600)" stroke-width="1.5"/>
<path d="M21.7499 14.6828L21.747 14.7153C21.61 16.285 20.7317 17.1821 19.8277 17.6575C18.9627 18.1124 18.0784 18.1857 17.7896 18.1988M21.7499 14.6828L18.2697 13.4344M21.7499 14.6828V14.6501V11.1C21.7499 10.6306 21.3693 10.25 20.8999 10.25H17.6172C17.1478 10.25 16.7672 10.6306 16.7672 11.1V13.0798C16.7672 13.5493 17.1478 13.9298 17.6172 13.9298H18.3621M17.7896 18.1988L17.7556 17.4509M17.7896 18.1988C17.3445 18.219 16.9937 17.8994 16.9209 17.5073L16.7586 16.6324C16.6725 16.1685 16.9753 15.7533 17.3927 15.6494C17.7703 15.5552 18.1467 15.323 18.2922 14.994C18.3779 14.8004 18.4079 14.5039 18.3848 14.1618C18.3794 14.0814 18.3714 14.0034 18.3621 13.9298M18.2697 13.4344C18.347 13.7424 18.6221 13.9298 18.9029 13.9298H18.3621M18.2697 13.4344C18.2919 13.5226 18.3335 13.7058 18.3621 13.9298M18.9972 13.2519L18.995 13.2524" stroke="url(#paint2_linear_360_600)" stroke-width="1.5"/>
<defs>
<linearGradient id="paint0_linear_360_600" x1="15" y1="6" x2="15" y2="24" gradientUnits="userSpaceOnUse">
<stop offset="1"/>
</linearGradient>
<linearGradient id="paint1_linear_360_600" x1="10.7389" y1="11" x2="10.7389" y2="17.4519" gradientUnits="userSpaceOnUse">
<stop offset="1"/>
</linearGradient>
<linearGradient id="paint2_linear_360_600" x1="19.2389" y1="11" x2="19.2389" y2="17.4519" gradientUnits="userSpaceOnUse">
<stop offset="1"/>
</linearGradient>
</defs>
</svg>
