<svg width="30" height="30" viewBox="0 0 30 30" fill="none" xmlns="http://www.w3.org/2000/svg">
<path d="M15 26.5C21.3513 26.5 26.5 21.3513 26.5 15C26.5 8.64873 21.3513 3.5 15 3.5C8.64873 3.5 3.5 8.64873 3.5 15C3.5 16.8396 3.93196 18.5784 4.69998 20.1203C4.90408 20.5301 4.97201 20.9985 4.85369 21.4407L4.16874 24.0006C3.8714 25.1119 4.88807 26.1286 5.99935 25.8313L8.55929 25.1463C9.00152 25.028 9.46989 25.0959 9.87966 25.3C11.4216 26.068 13.1604 26.5 15 26.5Z" stroke="url(#paint0_linear_360_635)" stroke-width="1.5"/>
<path d="M13.8245 10.9966L14.2132 11.6931C14.5641 12.3217 14.4232 13.1463 13.8707 13.6989C13.8707 13.6989 13.2006 14.3692 14.4156 15.5842C15.63 16.7986 16.301 16.1291 16.301 16.1291C16.8535 15.5766 17.6781 15.4358 18.3067 15.7866L19.0033 16.1753C19.9524 16.705 20.0645 18.0362 19.2302 18.8705C18.7289 19.3718 18.1147 19.7619 17.4358 19.7877C16.2929 19.831 14.352 19.5417 12.4051 17.5948C10.4581 15.6478 10.1688 13.7069 10.2122 12.564C10.2379 11.8851 10.628 11.2709 11.1293 10.7696C11.9637 9.9353 13.2948 10.0474 13.8245 10.9966Z" stroke="url(#paint1_linear_360_635)" stroke-width="1.5" stroke-linecap="round"/>
<defs>
<linearGradient id="paint0_linear_360_635" x1="15" y1="3.5" x2="15" y2="26.5" gradientUnits="userSpaceOnUse">
<stop offset="1"/>
</linearGradient>
<linearGradient id="paint1_linear_360_635" x1="14.9999" y1="10.2083" x2="14.9999" y2="19.7916" gradientUnits="userSpaceOnUse">
<stop offset="1"/>
</linearGradient>
</defs>
</svg>
