<svg width="30" height="30" viewBox="0 0 30 30" fill="none" xmlns="http://www.w3.org/2000/svg">
<path d="M14.85 8.85259C14.94 10.6426 15.02 11.8926 15.06 13.1426C15.08 13.6926 15.03 14.2826 14.37 14.4726C13.76 14.6526 13.39 14.2326 13.11 13.7926C11.52 11.3226 9.94998 8.84259 8.37998 6.36259C8.02998 5.81259 8.11998 5.30259 8.70998 4.99259C10.22 4.20259 11.85 3.76259 13.54 3.65259C14.19 3.61259 14.5 4.02259 14.54 4.68259C14.64 6.25259 14.77 7.82259 14.85 8.85259Z" stroke="url(#paint0_linear_360_642)" stroke-width="1.5" stroke-miterlimit="10"/>
<path d="M17.6801 16.4227C16.8101 16.4127 16.3101 15.5727 16.7801 14.8227C17.2001 14.1527 17.7301 13.5627 18.1701 12.9127C18.6501 12.1927 19.1401 11.4727 19.7001 10.8127C20.2001 10.2227 20.6601 10.1627 21.2301 10.6827C22.1801 11.5627 22.8701 12.6327 23.3401 13.8327C23.5501 14.3827 23.5401 14.9427 22.8201 15.1327C21.1901 15.5627 19.5601 15.9727 17.9301 16.3927C17.8501 16.4227 17.7601 16.4227 17.6801 16.4227Z" stroke="url(#paint1_linear_360_642)" stroke-width="1.5" stroke-miterlimit="10"/>
<path d="M18.0001 18.3326C18.3201 18.4326 18.7701 18.5626 19.2001 18.7126C20.4101 19.1126 21.6201 19.5026 22.8201 19.9326C23.5801 20.2026 23.7601 20.5926 23.4301 21.3226C22.8701 22.5526 22.0401 23.5826 20.9701 24.4026C20.4701 24.7826 19.9801 24.7026 19.6401 24.1726C18.7301 22.7626 17.8201 21.3426 16.9801 19.8926C16.5501 19.1426 17.0701 18.3226 18.0001 18.3326Z" stroke="url(#paint2_linear_360_642)" stroke-width="1.5" stroke-miterlimit="10"/>
<path d="M6.30005 17.2527C6.37005 16.3527 6.36005 15.6427 6.59005 14.9627C6.84005 14.2227 7.25005 14.0127 7.96005 14.2927C9.45005 14.8727 10.93 15.4827 12.42 16.0827C12.89 16.2727 13.19 16.6027 13.15 17.1427C13.11 17.6227 12.86 17.9527 12.39 18.1027C10.81 18.6127 9.24005 19.1227 7.66005 19.6127C6.98005 19.8227 6.60005 19.4527 6.48005 18.8427C6.36005 18.2627 6.35005 17.6527 6.30005 17.2527Z" stroke="url(#paint3_linear_360_642)" stroke-width="1.5" stroke-miterlimit="10"/>
<path d="M14.9901 22.8427C14.9901 23.6827 15.0001 24.5327 14.9901 25.3727C14.9801 26.0127 14.6301 26.3327 14.0001 26.2927C12.5801 26.1827 11.3001 25.6727 10.1401 24.8727C9.63011 24.5227 9.57011 24.0427 10.0001 23.5427C11.0501 22.2927 12.1001 21.0427 13.1501 19.7927C13.4701 19.4127 13.8701 19.2327 14.3801 19.4427C14.8601 19.6327 15.0201 19.9927 15.0101 20.4727C15.0001 21.2627 15.0101 22.0527 15.0101 22.8427C15.0001 22.8427 15.0001 22.8427 14.9901 22.8427Z" stroke="url(#paint4_linear_360_642)" stroke-width="1.5" stroke-miterlimit="10"/>
<defs>
<linearGradient id="paint0_linear_360_642" x1="11.6191" y1="3.6499" x2="11.6191" y2="14.5153" gradientUnits="userSpaceOnUse">
<stop offset="1"/>
</linearGradient>
<linearGradient id="paint1_linear_360_642" x1="20.0292" y1="10.3284" x2="20.0292" y2="16.4227" gradientUnits="userSpaceOnUse">
<stop offset="1"/>
</linearGradient>
<linearGradient id="paint2_linear_360_642" x1="20.2075" y1="18.3325" x2="20.2075" y2="24.6388" gradientUnits="userSpaceOnUse">
<stop offset="1"/>
</linearGradient>
<linearGradient id="paint3_linear_360_642" x1="9.72683" y1="14.1736" x2="9.72683" y2="19.6719" gradientUnits="userSpaceOnUse">
<stop offset="1"/>
</linearGradient>
<linearGradient id="paint4_linear_360_642" x1="12.3621" y1="19.3538" x2="12.3621" y2="26.296" gradientUnits="userSpaceOnUse">
<stop offset="1"/>
</linearGradient>
</defs>
</svg>
